<svg width="12" height="7" viewBox="0 0 12 7" fill="none" xmlns="http://www.w3.org/2000/svg">
<path fill-rule="evenodd" clip-rule="evenodd" d="M6.89756 6.64522C6.66147 6.8724 6.34145 7 6.00778 7C5.67411 7 5.35409 6.8724 5.118 6.64522L0.368609 2.07091C0.132514 1.84333 -7.86752e-05 1.53471 3.50232e-08 1.21295C7.87452e-05 0.891176 0.132822 0.582617 0.369028 0.355145C0.605234 0.127674 0.925555 -7.58015e-05 1.25952 3.37439e-08C1.59349 7.5869e-05 1.91375 0.127971 2.14984 0.35555L6.00778 4.07257L9.86572 0.35555C10.1031 0.134458 10.4211 0.0120353 10.7512 0.0146483C11.0814 0.0172613 11.3972 0.144701 11.6308 0.36952C11.8644 0.594339 11.9969 0.898547 11.9999 1.21663C12.003 1.5347 11.8762 1.8412 11.647 2.0701L6.8984 6.64603L6.89756 6.64522Z" fill="black"/>
</svg>
